<?xml version="1.0" encoding="utf-8" standalone="no"?>
<!DOCTYPE svg PUBLIC "-//W3C//DTD SVG 1.1//EN"
  "http://www.w3.org/Graphics/SVG/1.1/DTD/svg11.dtd">
<!-- Created with matplotlib (https://matplotlib.org/) -->
<svg height="720pt" version="1.1" viewBox="0 0 1440 720" width="1440pt" xmlns="http://www.w3.org/2000/svg" xmlns:xlink="http://www.w3.org/1999/xlink">
 <defs>
  <style type="text/css">
*{stroke-linecap:butt;stroke-linejoin:round;}
  </style>
 </defs>
 <g id="figure_1">
  <g id="patch_1">
   <path d="M 0 720 
L 1440 720 
L 1440 0 
L 0 0 
z
" style="fill:#ffffff;"/>
  </g>
  <g id="axes_1">
   <g id="patch_2">
    <path d="M 180 630 
L 1296 630 
L 1296 86.4 
L 180 86.4 
z
" style="fill:#ffffff;"/>
   </g>
   <g id="matplotlib.axis_1">
    <g id="xtick_1">
     <g id="text_1">
      <!-- 1 -->
      <defs>
       <path d="M 37.25 0 
L 28.46875 0 
L 28.46875 56 
Q 25.296875 52.984375 20.140625 49.953125 
Q 14.984375 46.921875 10.890625 45.40625 
L 10.890625 53.90625 
Q 18.265625 57.375 23.78125 62.296875 
Q 29.296875 67.234375 31.59375 71.875 
L 37.25 71.875 
z
" id="ArialMT-49"/>
      </defs>
      <g style="fill:#262626;" transform="translate(359.882969 655.247187)scale(0.22 -0.22)">
       <use xlink:href="#ArialMT-49"/>
      </g>
     </g>
    </g>
    <g id="xtick_2">
     <g id="text_2">
      <!-- 2 -->
      <defs>
       <path d="M 50.34375 8.453125 
L 50.34375 0 
L 3.03125 0 
Q 2.9375 3.171875 4.046875 6.109375 
Q 5.859375 10.9375 9.828125 15.625 
Q 13.8125 20.3125 21.34375 26.46875 
Q 33.015625 36.03125 37.109375 41.625 
Q 41.21875 47.21875 41.21875 52.203125 
Q 41.21875 57.421875 37.46875 61 
Q 33.734375 64.59375 27.734375 64.59375 
Q 21.390625 64.59375 17.578125 60.78125 
Q 13.765625 56.984375 13.71875 50.25 
L 4.6875 51.171875 
Q 5.609375 61.28125 11.65625 66.578125 
Q 17.71875 71.875 27.9375 71.875 
Q 38.234375 71.875 44.234375 66.15625 
Q 50.25 60.453125 50.25 52 
Q 50.25 47.703125 48.484375 43.546875 
Q 46.734375 39.40625 42.65625 34.8125 
Q 38.578125 30.21875 29.109375 22.21875 
Q 21.1875 15.578125 18.9375 13.203125 
Q 16.703125 10.84375 15.234375 8.453125 
z
" id="ArialMT-50"/>
      </defs>
      <g style="fill:#262626;" transform="translate(731.882969 655.247187)scale(0.22 -0.22)">
       <use xlink:href="#ArialMT-50"/>
      </g>
     </g>
    </g>
    <g id="xtick_3">
     <g id="text_3">
      <!-- 3 -->
      <defs>
       <path d="M 4.203125 18.890625 
L 12.984375 20.0625 
Q 14.5 12.59375 18.140625 9.296875 
Q 21.78125 6 27 6 
Q 33.203125 6 37.46875 10.296875 
Q 41.75 14.59375 41.75 20.953125 
Q 41.75 27 37.796875 30.921875 
Q 33.84375 34.859375 27.734375 34.859375 
Q 25.25 34.859375 21.53125 33.890625 
L 22.515625 41.609375 
Q 23.390625 41.5 23.921875 41.5 
Q 29.546875 41.5 34.03125 44.421875 
Q 38.53125 47.359375 38.53125 53.46875 
Q 38.53125 58.296875 35.25 61.46875 
Q 31.984375 64.65625 26.8125 64.65625 
Q 21.6875 64.65625 18.265625 61.421875 
Q 14.84375 58.203125 13.875 51.765625 
L 5.078125 53.328125 
Q 6.6875 62.15625 12.390625 67.015625 
Q 18.109375 71.875 26.609375 71.875 
Q 32.46875 71.875 37.390625 69.359375 
Q 42.328125 66.84375 44.9375 62.5 
Q 47.5625 58.15625 47.5625 53.265625 
Q 47.5625 48.640625 45.0625 44.828125 
Q 42.578125 41.015625 37.703125 38.765625 
Q 44.046875 37.3125 47.5625 32.6875 
Q 51.078125 28.078125 51.078125 21.140625 
Q 51.078125 11.765625 44.234375 5.25 
Q 37.40625 -1.265625 26.953125 -1.265625 
Q 17.53125 -1.265625 11.296875 4.34375 
Q 5.078125 9.96875 4.203125 18.890625 
z
" id="ArialMT-51"/>
      </defs>
      <g style="fill:#262626;" transform="translate(1103.882969 655.247187)scale(0.22 -0.22)">
       <use xlink:href="#ArialMT-51"/>
      </g>
     </g>
    </g>
    <g id="text_4">
     <!-- Pclass -->
     <defs>
      <path d="M 7.71875 0 
L 7.71875 71.578125 
L 34.71875 71.578125 
Q 41.84375 71.578125 45.609375 70.90625 
Q 50.875 70.015625 54.4375 67.546875 
Q 58.015625 65.09375 60.1875 60.640625 
Q 62.359375 56.203125 62.359375 50.875 
Q 62.359375 41.75 56.546875 35.421875 
Q 50.734375 29.109375 35.546875 29.109375 
L 17.1875 29.109375 
L 17.1875 0 
z
M 17.1875 37.546875 
L 35.6875 37.546875 
Q 44.875 37.546875 48.734375 40.96875 
Q 52.59375 44.390625 52.59375 50.59375 
Q 52.59375 55.078125 50.3125 58.265625 
Q 48.046875 61.46875 44.34375 62.5 
Q 41.9375 63.140625 35.5 63.140625 
L 17.1875 63.140625 
z
" id="ArialMT-80"/>
      <path d="M 40.4375 19 
L 49.078125 17.875 
Q 47.65625 8.9375 41.8125 3.875 
Q 35.984375 -1.171875 27.484375 -1.171875 
Q 16.84375 -1.171875 10.375 5.78125 
Q 3.90625 12.75 3.90625 25.734375 
Q 3.90625 34.125 6.6875 40.421875 
Q 9.46875 46.734375 15.15625 49.875 
Q 20.84375 53.03125 27.546875 53.03125 
Q 35.984375 53.03125 41.359375 48.75 
Q 46.734375 44.484375 48.25 36.625 
L 39.703125 35.296875 
Q 38.484375 40.53125 35.375 43.15625 
Q 32.28125 45.796875 27.875 45.796875 
Q 21.234375 45.796875 17.078125 41.03125 
Q 12.9375 36.28125 12.9375 25.984375 
Q 12.9375 15.53125 16.9375 10.796875 
Q 20.953125 6.0625 27.390625 6.0625 
Q 32.5625 6.0625 36.03125 9.234375 
Q 39.5 12.40625 40.4375 19 
z
" id="ArialMT-99"/>
      <path d="M 6.390625 0 
L 6.390625 71.578125 
L 15.1875 71.578125 
L 15.1875 0 
z
" id="ArialMT-108"/>
      <path d="M 40.4375 6.390625 
Q 35.546875 2.25 31.03125 0.53125 
Q 26.515625 -1.171875 21.34375 -1.171875 
Q 12.796875 -1.171875 8.203125 3 
Q 3.609375 7.171875 3.609375 13.671875 
Q 3.609375 17.484375 5.34375 20.625 
Q 7.078125 23.78125 9.890625 25.6875 
Q 12.703125 27.59375 16.21875 28.5625 
Q 18.796875 29.25 24.03125 29.890625 
Q 34.671875 31.15625 39.703125 32.90625 
Q 39.75 34.71875 39.75 35.203125 
Q 39.75 40.578125 37.25 42.78125 
Q 33.890625 45.75 27.25 45.75 
Q 21.046875 45.75 18.09375 43.578125 
Q 15.140625 41.40625 13.71875 35.890625 
L 5.125 37.0625 
Q 6.296875 42.578125 8.984375 45.96875 
Q 11.671875 49.359375 16.75 51.1875 
Q 21.828125 53.03125 28.515625 53.03125 
Q 35.15625 53.03125 39.296875 51.46875 
Q 43.453125 49.90625 45.40625 47.53125 
Q 47.359375 45.171875 48.140625 41.546875 
Q 48.578125 39.3125 48.578125 33.453125 
L 48.578125 21.734375 
Q 48.578125 9.46875 49.140625 6.21875 
Q 49.703125 2.984375 51.375 0 
L 42.1875 0 
Q 40.828125 2.734375 40.4375 6.390625 
z
M 39.703125 26.03125 
Q 34.90625 24.078125 25.34375 22.703125 
Q 19.921875 21.921875 17.671875 20.9375 
Q 15.4375 19.96875 14.203125 18.09375 
Q 12.984375 16.21875 12.984375 13.921875 
Q 12.984375 10.40625 15.640625 8.0625 
Q 18.3125 5.71875 23.4375 5.71875 
Q 28.515625 5.71875 32.46875 7.9375 
Q 36.421875 10.15625 38.28125 14.015625 
Q 39.703125 17 39.703125 22.796875 
z
" id="ArialMT-97"/>
      <path d="M 3.078125 15.484375 
L 11.765625 16.84375 
Q 12.5 11.625 15.84375 8.84375 
Q 19.1875 6.0625 25.203125 6.0625 
Q 31.25 6.0625 34.171875 8.515625 
Q 37.109375 10.984375 37.109375 14.3125 
Q 37.109375 17.28125 34.515625 19 
Q 32.71875 20.171875 25.53125 21.96875 
Q 15.875 24.421875 12.140625 26.203125 
Q 8.40625 27.984375 6.46875 31.125 
Q 4.546875 34.28125 4.546875 38.09375 
Q 4.546875 41.546875 6.125 44.5 
Q 7.71875 47.46875 10.453125 49.421875 
Q 12.5 50.921875 16.03125 51.96875 
Q 19.578125 53.03125 23.640625 53.03125 
Q 29.734375 53.03125 34.34375 51.265625 
Q 38.96875 49.515625 41.15625 46.5 
Q 43.359375 43.5 44.1875 38.484375 
L 35.59375 37.3125 
Q 35.015625 41.3125 32.203125 43.546875 
Q 29.390625 45.796875 24.265625 45.796875 
Q 18.21875 45.796875 15.625 43.796875 
Q 13.03125 41.796875 13.03125 39.109375 
Q 13.03125 37.40625 14.109375 36.03125 
Q 15.1875 34.625 17.484375 33.6875 
Q 18.796875 33.203125 25.25 31.453125 
Q 34.578125 28.953125 38.25 27.359375 
Q 41.9375 25.78125 44.03125 22.75 
Q 46.140625 19.734375 46.140625 15.234375 
Q 46.140625 10.84375 43.578125 6.953125 
Q 41.015625 3.078125 36.171875 0.953125 
Q 31.34375 -1.171875 25.25 -1.171875 
Q 15.140625 -1.171875 9.84375 3.03125 
Q 4.546875 7.234375 3.078125 15.484375 
z
" id="ArialMT-115"/>
     </defs>
     <g style="fill:#262626;" transform="translate(702.65625 680.798437)scale(0.24 -0.24)">
      <use xlink:href="#ArialMT-80"/>
      <use x="66.699219" xlink:href="#ArialMT-99"/>
      <use x="116.699219" xlink:href="#ArialMT-108"/>
      <use x="138.916016" xlink:href="#ArialMT-97"/>
      <use x="194.53125" xlink:href="#ArialMT-115"/>
      <use x="244.53125" xlink:href="#ArialMT-115"/>
     </g>
    </g>
   </g>
   <g id="matplotlib.axis_2">
    <g id="ytick_1">
     <g id="line2d_1">
      <path clip-path="url(#p64affe6740)" d="M 180 559.219731 
L 1296 559.219731 
" style="fill:none;stroke:#cccccc;stroke-linecap:round;"/>
     </g>
     <g id="text_5">
      <!-- 0 -->
      <defs>
       <path d="M 4.15625 35.296875 
Q 4.15625 48 6.765625 55.734375 
Q 9.375 63.484375 14.515625 67.671875 
Q 19.671875 71.875 27.484375 71.875 
Q 33.25 71.875 37.59375 69.546875 
Q 41.9375 67.234375 44.765625 62.859375 
Q 47.609375 58.5 49.21875 52.21875 
Q 50.828125 45.953125 50.828125 35.296875 
Q 50.828125 22.703125 48.234375 14.96875 
Q 45.65625 7.234375 40.5 3 
Q 35.359375 -1.21875 27.484375 -1.21875 
Q 17.140625 -1.21875 11.234375 6.203125 
Q 4.15625 15.140625 4.15625 35.296875 
z
M 13.1875 35.296875 
Q 13.1875 17.671875 17.3125 11.828125 
Q 21.4375 6 27.484375 6 
Q 33.546875 6 37.671875 11.859375 
Q 41.796875 17.71875 41.796875 35.296875 
Q 41.796875 52.984375 37.671875 58.78125 
Q 33.546875 64.59375 27.390625 64.59375 
Q 21.34375 64.59375 17.71875 59.46875 
Q 13.1875 52.9375 13.1875 35.296875 
z
" id="ArialMT-48"/>
      </defs>
      <g style="fill:#262626;" transform="translate(158.265938 567.093324)scale(0.22 -0.22)">
       <use xlink:href="#ArialMT-48"/>
      </g>
     </g>
    </g>
    <g id="ytick_2">
     <g id="line2d_2">
      <path clip-path="url(#p64affe6740)" d="M 180 459.233105 
L 1296 459.233105 
" style="fill:none;stroke:#cccccc;stroke-linecap:round;"/>
     </g>
     <g id="text_6">
      <!-- 20 -->
      <g style="fill:#262626;" transform="translate(146.031875 467.106699)scale(0.22 -0.22)">
       <use xlink:href="#ArialMT-50"/>
       <use x="55.615234" xlink:href="#ArialMT-48"/>
      </g>
     </g>
    </g>
    <g id="ytick_3">
     <g id="line2d_3">
      <path clip-path="url(#p64affe6740)" d="M 180 359.24648 
L 1296 359.24648 
" style="fill:none;stroke:#cccccc;stroke-linecap:round;"/>
     </g>
     <g id="text_7">
      <!-- 40 -->
      <defs>
       <path d="M 32.328125 0 
L 32.328125 17.140625 
L 1.265625 17.140625 
L 1.265625 25.203125 
L 33.9375 71.578125 
L 41.109375 71.578125 
L 41.109375 25.203125 
L 50.78125 25.203125 
L 50.78125 17.140625 
L 41.109375 17.140625 
L 41.109375 0 
z
M 32.328125 25.203125 
L 32.328125 57.46875 
L 9.90625 25.203125 
z
" id="ArialMT-52"/>
      </defs>
      <g style="fill:#262626;" transform="translate(146.031875 367.120074)scale(0.22 -0.22)">
       <use xlink:href="#ArialMT-52"/>
       <use x="55.615234" xlink:href="#ArialMT-48"/>
      </g>
     </g>
    </g>
    <g id="ytick_4">
     <g id="line2d_4">
      <path clip-path="url(#p64affe6740)" d="M 180 259.259855 
L 1296 259.259855 
" style="fill:none;stroke:#cccccc;stroke-linecap:round;"/>
     </g>
     <g id="text_8">
      <!-- 60 -->
      <defs>
       <path d="M 49.75 54.046875 
L 41.015625 53.375 
Q 39.84375 58.546875 37.703125 60.890625 
Q 34.125 64.65625 28.90625 64.65625 
Q 24.703125 64.65625 21.53125 62.3125 
Q 17.390625 59.28125 14.984375 53.46875 
Q 12.59375 47.65625 12.5 36.921875 
Q 15.671875 41.75 20.265625 44.09375 
Q 24.859375 46.4375 29.890625 46.4375 
Q 38.671875 46.4375 44.84375 39.96875 
Q 51.03125 33.5 51.03125 23.25 
Q 51.03125 16.5 48.125 10.71875 
Q 45.21875 4.9375 40.140625 1.859375 
Q 35.0625 -1.21875 28.609375 -1.21875 
Q 17.625 -1.21875 10.6875 6.859375 
Q 3.765625 14.9375 3.765625 33.5 
Q 3.765625 54.25 11.421875 63.671875 
Q 18.109375 71.875 29.4375 71.875 
Q 37.890625 71.875 43.28125 67.140625 
Q 48.6875 62.40625 49.75 54.046875 
z
M 13.875 23.1875 
Q 13.875 18.65625 15.796875 14.5 
Q 17.71875 10.359375 21.1875 8.171875 
Q 24.65625 6 28.46875 6 
Q 34.03125 6 38.03125 10.484375 
Q 42.046875 14.984375 42.046875 22.703125 
Q 42.046875 30.125 38.078125 34.390625 
Q 34.125 38.671875 28.125 38.671875 
Q 22.171875 38.671875 18.015625 34.390625 
Q 13.875 30.125 13.875 23.1875 
z
" id="ArialMT-54"/>
      </defs>
      <g style="fill:#262626;" transform="translate(146.031875 267.133449)scale(0.22 -0.22)">
       <use xlink:href="#ArialMT-54"/>
       <use x="55.615234" xlink:href="#ArialMT-48"/>
      </g>
     </g>
    </g>
    <g id="ytick_5">
     <g id="line2d_5">
      <path clip-path="url(#p64affe6740)" d="M 180 159.27323 
L 1296 159.27323 
" style="fill:none;stroke:#cccccc;stroke-linecap:round;"/>
     </g>
     <g id="text_9">
      <!-- 80 -->
      <defs>
       <path d="M 17.671875 38.8125 
Q 12.203125 40.828125 9.5625 44.53125 
Q 6.9375 48.25 6.9375 53.421875 
Q 6.9375 61.234375 12.546875 66.546875 
Q 18.171875 71.875 27.484375 71.875 
Q 36.859375 71.875 42.578125 66.421875 
Q 48.296875 60.984375 48.296875 53.171875 
Q 48.296875 48.1875 45.671875 44.5 
Q 43.0625 40.828125 37.75 38.8125 
Q 44.34375 36.671875 47.78125 31.875 
Q 51.21875 27.09375 51.21875 20.453125 
Q 51.21875 11.28125 44.71875 5.03125 
Q 38.234375 -1.21875 27.640625 -1.21875 
Q 17.046875 -1.21875 10.546875 5.046875 
Q 4.046875 11.328125 4.046875 20.703125 
Q 4.046875 27.6875 7.59375 32.390625 
Q 11.140625 37.109375 17.671875 38.8125 
z
M 15.921875 53.71875 
Q 15.921875 48.640625 19.1875 45.40625 
Q 22.46875 42.1875 27.6875 42.1875 
Q 32.765625 42.1875 36.015625 45.375 
Q 39.265625 48.578125 39.265625 53.21875 
Q 39.265625 58.0625 35.90625 61.359375 
Q 32.5625 64.65625 27.59375 64.65625 
Q 22.5625 64.65625 19.234375 61.421875 
Q 15.921875 58.203125 15.921875 53.71875 
z
M 13.09375 20.65625 
Q 13.09375 16.890625 14.875 13.375 
Q 16.65625 9.859375 20.171875 7.921875 
Q 23.6875 6 27.734375 6 
Q 34.03125 6 38.125 10.046875 
Q 42.234375 14.109375 42.234375 20.359375 
Q 42.234375 26.703125 38.015625 30.859375 
Q 33.796875 35.015625 27.4375 35.015625 
Q 21.234375 35.015625 17.15625 30.90625 
Q 13.09375 26.8125 13.09375 20.65625 
z
" id="ArialMT-56"/>
      </defs>
      <g style="fill:#262626;" transform="translate(146.031875 167.146824)scale(0.22 -0.22)">
       <use xlink:href="#ArialMT-56"/>
       <use x="55.615234" xlink:href="#ArialMT-48"/>
      </g>
     </g>
    </g>
    <g id="text_10">
     <!-- Age -->
     <defs>
      <path d="M -0.140625 0 
L 27.34375 71.578125 
L 37.546875 71.578125 
L 66.84375 0 
L 56.0625 0 
L 47.703125 21.6875 
L 17.78125 21.6875 
L 9.90625 0 
z
M 20.515625 29.390625 
L 44.78125 29.390625 
L 37.3125 49.21875 
Q 33.890625 58.25 32.234375 64.0625 
Q 30.859375 57.171875 28.375 50.390625 
z
" id="ArialMT-65"/>
      <path d="M 4.984375 -4.296875 
L 13.53125 -5.5625 
Q 14.0625 -9.515625 16.5 -11.328125 
Q 19.78125 -13.765625 25.4375 -13.765625 
Q 31.546875 -13.765625 34.859375 -11.328125 
Q 38.1875 -8.890625 39.359375 -4.5 
Q 40.046875 -1.8125 39.984375 6.78125 
Q 34.234375 0 25.640625 0 
Q 14.9375 0 9.078125 7.71875 
Q 3.21875 15.4375 3.21875 26.21875 
Q 3.21875 33.640625 5.90625 39.90625 
Q 8.59375 46.1875 13.6875 49.609375 
Q 18.796875 53.03125 25.6875 53.03125 
Q 34.859375 53.03125 40.828125 45.609375 
L 40.828125 51.859375 
L 48.921875 51.859375 
L 48.921875 7.03125 
Q 48.921875 -5.078125 46.453125 -10.125 
Q 44 -15.1875 38.640625 -18.109375 
Q 33.296875 -21.046875 25.484375 -21.046875 
Q 16.21875 -21.046875 10.5 -16.875 
Q 4.78125 -12.703125 4.984375 -4.296875 
z
M 12.25 26.859375 
Q 12.25 16.65625 16.296875 11.96875 
Q 20.359375 7.28125 26.46875 7.28125 
Q 32.515625 7.28125 36.609375 11.9375 
Q 40.71875 16.609375 40.71875 26.5625 
Q 40.71875 36.078125 36.5 40.90625 
Q 32.28125 45.75 26.3125 45.75 
Q 20.453125 45.75 16.34375 40.984375 
Q 12.25 36.234375 12.25 26.859375 
z
" id="ArialMT-103"/>
      <path d="M 42.09375 16.703125 
L 51.171875 15.578125 
Q 49.03125 7.625 43.21875 3.21875 
Q 37.40625 -1.171875 28.375 -1.171875 
Q 17 -1.171875 10.328125 5.828125 
Q 3.65625 12.84375 3.65625 25.484375 
Q 3.65625 38.578125 10.390625 45.796875 
Q 17.140625 53.03125 27.875 53.03125 
Q 38.28125 53.03125 44.875 45.953125 
Q 51.46875 38.875 51.46875 26.03125 
Q 51.46875 25.25 51.421875 23.6875 
L 12.75 23.6875 
Q 13.234375 15.140625 17.578125 10.59375 
Q 21.921875 6.0625 28.421875 6.0625 
Q 33.25 6.0625 36.671875 8.59375 
Q 40.09375 11.140625 42.09375 16.703125 
z
M 13.234375 30.90625 
L 42.1875 30.90625 
Q 41.609375 37.453125 38.875 40.71875 
Q 34.671875 45.796875 27.984375 45.796875 
Q 21.921875 45.796875 17.796875 41.75 
Q 13.671875 37.703125 13.234375 30.90625 
z
" id="ArialMT-101"/>
     </defs>
     <g style="fill:#262626;" transform="translate(136.980625 379.550625)rotate(-90)scale(0.24 -0.24)">
      <use xlink:href="#ArialMT-65"/>
      <use x="66.699219" xlink:href="#ArialMT-103"/>
      <use x="122.314453" xlink:href="#ArialMT-101"/>
     </g>
    </g>
   </g>
   <g id="PolyCollection_1">
    <defs>
     <path d="M 366 -117.215515 
L 365.601464 -117.215515 
L 365.387968 -122.181933 
L 365.094524 -127.148351 
L 364.708608 -132.114769 
L 364.223216 -137.081187 
L 363.639716 -142.047606 
L 362.969886 -147.014024 
L 362.236397 -151.980442 
L 361.471197 -156.94686 
L 360.711622 -161.913278 
L 359.994661 -166.879696 
L 359.350259 -171.846114 
L 358.794924 -176.812532 
L 358.326937 -181.778951 
L 357.924158 -186.745369 
L 357.544808 -191.711787 
L 357.130974 -196.678205 
L 356.613935 -201.644623 
L 355.920199 -206.611041 
L 354.977159 -211.577459 
L 353.717629 -216.543877 
L 352.082981 -221.510296 
L 350.024976 -226.476714 
L 347.506644 -231.443132 
L 344.50276 -236.40955 
L 341.000512 -241.375968 
L 337.001048 -246.342386 
L 332.522383 -251.308804 
L 327.60373 -256.275222 
L 322.310458 -261.241641 
L 316.73796 -266.208059 
L 311.011962 -271.174477 
L 305.282788 -276.140895 
L 299.712079 -281.107313 
L 294.452409 -286.073731 
L 289.622737 -291.040149 
L 285.284834 -296.006567 
L 281.426973 -300.972985 
L 277.960379 -305.939404 
L 274.731337 -310.905822 
L 271.547755 -315.87224 
L 268.214736 -320.838658 
L 264.57082 -325.805076 
L 260.516189 -330.771494 
L 256.026665 -335.737912 
L 251.151993 -340.70433 
L 246.001991 -345.670749 
L 240.727694 -350.637167 
L 235.505188 -355.603585 
L 230.527203 -360.570003 
L 226.002757 -365.536421 
L 222.16024 -370.502839 
L 219.246483 -375.469257 
L 217.51493 -380.435675 
L 217.2 -385.402094 
L 218.480759 -390.368512 
L 221.442539 -395.33493 
L 226.047865 -400.301348 
L 232.126675 -405.267766 
L 239.390614 -410.234184 
L 247.469217 -415.200602 
L 255.959582 -420.16702 
L 264.478055 -425.133439 
L 272.703122 -430.099857 
L 280.402595 -435.066275 
L 287.443165 -440.032693 
L 293.784675 -444.999111 
L 299.463745 -449.965529 
L 304.571586 -454.931947 
L 309.22986 -459.898365 
L 313.567339 -464.864784 
L 317.699506 -469.831202 
L 321.7131 -474.79762 
L 325.657425 -479.764038 
L 329.543437 -484.730456 
L 333.350127 -489.696874 
L 337.03596 -494.663292 
L 340.551874 -499.62971 
L 343.85226 -504.596129 
L 346.901533 -509.562547 
L 349.675843 -514.528965 
L 352.161386 -519.495383 
L 354.351737 -524.461801 
L 356.246365 -529.428219 
L 357.851251 -534.394637 
L 359.181005 -539.361055 
L 360.260802 -544.327473 
L 361.126411 -549.293892 
L 361.821364 -554.26031 
L 362.391643 -559.226728 
L 362.879329 -564.193146 
L 363.317113 -569.159564 
L 363.725236 -574.125982 
L 364.111503 -579.0924 
L 364.473983 -584.058818 
L 364.805244 -589.025237 
L 365.096728 -593.991655 
L 365.342127 -598.958073 
L 365.539183 -603.924491 
L 365.689913 -608.890909 
L 366 -608.890909 
L 366 -608.890909 
L 366 -603.924491 
L 366 -598.958073 
L 366 -593.991655 
L 366 -589.025237 
L 366 -584.058818 
L 366 -579.0924 
L 366 -574.125982 
L 366 -569.159564 
L 366 -564.193146 
L 366 -559.226728 
L 366 -554.26031 
L 366 -549.293892 
L 366 -544.327473 
L 366 -539.361055 
L 366 -534.394637 
L 366 -529.428219 
L 366 -524.461801 
L 366 -519.495383 
L 366 -514.528965 
L 366 -509.562547 
L 366 -504.596129 
L 366 -499.62971 
L 366 -494.663292 
L 366 -489.696874 
L 366 -484.730456 
L 366 -479.764038 
L 366 -474.79762 
L 366 -469.831202 
L 366 -464.864784 
L 366 -459.898365 
L 366 -454.931947 
L 366 -449.965529 
L 366 -444.999111 
L 366 -440.032693 
L 366 -435.066275 
L 366 -430.099857 
L 366 -425.133439 
L 366 -420.16702 
L 366 -415.200602 
L 366 -410.234184 
L 366 -405.267766 
L 366 -400.301348 
L 366 -395.33493 
L 366 -390.368512 
L 366 -385.402094 
L 366 -380.435675 
L 366 -375.469257 
L 366 -370.502839 
L 366 -365.536421 
L 366 -360.570003 
L 366 -355.603585 
L 366 -350.637167 
L 366 -345.670749 
L 366 -340.70433 
L 366 -335.737912 
L 366 -330.771494 
L 366 -325.805076 
L 366 -320.838658 
L 366 -315.87224 
L 366 -310.905822 
L 366 -305.939404 
L 366 -300.972985 
L 366 -296.006567 
L 366 -291.040149 
L 366 -286.073731 
L 366 -281.107313 
L 366 -276.140895 
L 366 -271.174477 
L 366 -266.208059 
L 366 -261.241641 
L 366 -256.275222 
L 366 -251.308804 
L 366 -246.342386 
L 366 -241.375968 
L 366 -236.40955 
L 366 -231.443132 
L 366 -226.476714 
L 366 -221.510296 
L 366 -216.543877 
L 366 -211.577459 
L 366 -206.611041 
L 366 -201.644623 
L 366 -196.678205 
L 366 -191.711787 
L 366 -186.745369 
L 366 -181.778951 
L 366 -176.812532 
L 366 -171.846114 
L 366 -166.879696 
L 366 -161.913278 
L 366 -156.94686 
L 366 -151.980442 
L 366 -147.014024 
L 366 -142.047606 
L 366 -137.081187 
L 366 -132.114769 
L 366 -127.148351 
L 366 -122.181933 
L 366 -117.215515 
z
" id="m17b6709184" style="stroke:#797979;stroke-width:1.5;"/>
    </defs>
    <g clip-path="url(#p64affe6740)">
     <use style="fill:#b4d4df;stroke:#797979;stroke-width:1.5;" x="0" xlink:href="#m17b6709184" y="720"/>
    </g>
   </g>
   <g id="PolyCollection_2">
    <defs>
     <path d="M 366.359099 -119.539648 
L 366 -119.539648 
L 366 -124.311659 
L 366 -129.08367 
L 366 -133.855681 
L 366 -138.627692 
L 366 -143.399703 
L 366 -148.171714 
L 366 -152.943725 
L 366 -157.715736 
L 366 -162.487746 
L 366 -167.259757 
L 366 -172.031768 
L 366 -176.803779 
L 366 -181.57579 
L 366 -186.347801 
L 366 -191.119812 
L 366 -195.891823 
L 366 -200.663834 
L 366 -205.435845 
L 366 -210.207856 
L 366 -214.979866 
L 366 -219.751877 
L 366 -224.523888 
L 366 -229.295899 
L 366 -234.06791 
L 366 -238.839921 
L 366 -243.611932 
L 366 -248.383943 
L 366 -253.155954 
L 366 -257.927965 
L 366 -262.699976 
L 366 -267.471987 
L 366 -272.243997 
L 366 -277.016008 
L 366 -281.788019 
L 366 -286.56003 
L 366 -291.332041 
L 366 -296.104052 
L 366 -300.876063 
L 366 -305.648074 
L 366 -310.420085 
L 366 -315.192096 
L 366 -319.964107 
L 366 -324.736117 
L 366 -329.508128 
L 366 -334.280139 
L 366 -339.05215 
L 366 -343.824161 
L 366 -348.596172 
L 366 -353.368183 
L 366 -358.140194 
L 366 -362.912205 
L 366 -367.684216 
L 366 -372.456227 
L 366 -377.228237 
L 366 -382.000248 
L 366 -386.772259 
L 366 -391.54427 
L 366 -396.316281 
L 366 -401.088292 
L 366 -405.860303 
L 366 -410.632314 
L 366 -415.404325 
L 366 -420.176336 
L 366 -424.948347 
L 366 -429.720358 
L 366 -434.492368 
L 366 -439.264379 
L 366 -444.03639 
L 366 -448.808401 
L 366 -453.580412 
L 366 -458.352423 
L 366 -463.124434 
L 366 -467.896445 
L 366 -472.668456 
L 366 -477.440467 
L 366 -482.212478 
L 366 -486.984488 
L 366 -491.756499 
L 366 -496.52851 
L 366 -501.300521 
L 366 -506.072532 
L 366 -510.844543 
L 366 -515.616554 
L 366 -520.388565 
L 366 -525.160576 
L 366 -529.932587 
L 366 -534.704598 
L 366 -539.476609 
L 366 -544.248619 
L 366 -549.02063 
L 366 -553.792641 
L 366 -558.564652 
L 366 -563.336663 
L 366 -568.108674 
L 366 -572.880685 
L 366 -577.652696 
L 366 -582.424707 
L 366 -587.196718 
L 366 -591.968729 
L 366.359288 -591.968729 
L 366.359288 -591.968729 
L 366.51305 -587.196718 
L 366.708071 -582.424707 
L 366.944827 -577.652696 
L 367.219647 -572.880685 
L 367.524454 -568.108674 
L 367.847603 -563.336663 
L 368.176081 -558.564652 
L 368.499064 -553.792641 
L 368.812489 -549.02063 
L 369.123924 -544.248619 
L 369.456764 -539.476609 
L 369.852709 -534.704598 
L 370.371594 -529.932587 
L 371.08806 -525.160576 
L 372.08507 -520.388565 
L 373.444925 -515.616554 
L 375.238973 -510.844543 
L 377.517621 -506.072532 
L 380.302348 -501.300521 
L 383.581218 -496.52851 
L 387.308812 -491.756499 
L 391.410791 -486.984488 
L 395.792369 -482.212478 
L 400.34929 -477.440467 
L 404.97938 -472.668456 
L 409.592684 -467.896445 
L 414.11852 -463.124434 
L 418.508464 -458.352423 
L 422.735136 -453.580412 
L 426.787542 -448.808401 
L 430.664374 -444.03639 
L 434.367077 -439.264379 
L 437.894436 -434.492368 
L 441.240053 -429.720358 
L 444.393387 -424.948347 
L 447.34414 -420.176336 
L 450.088909 -415.404325 
L 452.638319 -410.632314 
L 455.022514 -405.860303 
L 457.292996 -401.088292 
L 459.519431 -396.316281 
L 461.781054 -391.54427 
L 464.153562 -386.772259 
L 466.693612 -382.000248 
L 469.423868 -377.228237 
L 472.32188 -372.456227 
L 475.315622 -367.684216 
L 478.287431 -362.912205 
L 481.086508 -358.140194 
L 483.548438 -353.368183 
L 485.518666 -348.596172 
L 486.875962 -343.824161 
L 487.55175 -339.05215 
L 487.541762 -334.280139 
L 486.907755 -329.508128 
L 485.768685 -324.736117 
L 484.282443 -319.964107 
L 482.620848 -315.192096 
L 480.941743 -310.420085 
L 479.362627 -305.648074 
L 477.940116 -300.876063 
L 476.658695 -296.104052 
L 475.430701 -291.332041 
L 474.107545 -286.56003 
L 472.500273 -281.788019 
L 470.405966 -277.016008 
L 467.635783 -272.243997 
L 464.040499 -267.471987 
L 459.530331 -262.699976 
L 454.08713 -257.927965 
L 447.768324 -253.155954 
L 440.703023 -248.383943 
L 433.081304 -243.611932 
L 425.138019 -238.839921 
L 417.132715 -234.06791 
L 409.327497 -229.295899 
L 401.964997 -224.523888 
L 395.248772 -219.751877 
L 389.328357 -214.979866 
L 384.290663 -210.207856 
L 380.158508 -205.435845 
L 376.896016 -200.663834 
L 374.419593 -195.891823 
L 372.612504 -191.119812 
L 371.340796 -186.347801 
L 370.468448 -181.57579 
L 369.870055 -176.803779 
L 369.439957 -172.031768 
L 369.097346 -167.259757 
L 368.787488 -162.487746 
L 368.479637 -157.715736 
L 368.16259 -152.943725 
L 367.838963 -148.171714 
L 367.51927 -143.399703 
L 367.216706 -138.627692 
L 366.943241 -133.855681 
L 366.707255 -129.08367 
L 366.512648 -124.311659 
L 366.359099 -119.539648 
z
" id="me82b4122bf" style="stroke:#797979;stroke-width:1.5;"/>
    </defs>
    <g clip-path="url(#p64affe6740)">
     <use style="fill:#f6bfc7;stroke:#797979;stroke-width:1.5;" x="0" xlink:href="#me82b4122bf" y="720"/>
    </g>
   </g>
   <g id="PolyCollection_3">
    <defs>
     <path d="M 738 -114.709091 
L 736.197781 -114.709091 
L 735.384772 -119.208536 
L 734.324404 -123.707982 
L 732.995926 -128.207427 
L 731.399557 -132.706873 
L 729.563358 -137.206318 
L 727.547237 -141.705763 
L 725.442384 -146.205209 
L 723.365051 -150.704654 
L 721.444704 -155.2041 
L 719.807843 -159.703545 
L 718.559935 -164.202991 
L 717.76854 -168.702436 
L 717.450603 -173.201881 
L 717.566059 -177.701327 
L 718.018522 -182.200772 
L 718.662464 -186.700218 
L 719.315174 -191.199663 
L 719.771341 -195.699109 
L 719.818301 -200.198554 
L 719.250586 -204.697999 
L 717.883149 -209.197445 
L 715.563103 -213.69689 
L 712.179911 -218.196336 
L 707.673706 -222.695781 
L 702.041036 -227.195226 
L 695.337127 -231.694672 
L 687.673902 -236.194117 
L 679.213519 -240.693563 
L 670.157945 -245.193008 
L 660.735832 -249.692454 
L 651.188407 -254.191899 
L 641.756128 -258.691344 
L 632.667561 -263.19079 
L 624.131287 -267.690235 
L 616.331088 -272.189681 
L 609.42406 -276.689126 
L 603.540943 -281.188572 
L 598.787702 -285.688017 
L 595.247277 -290.187462 
L 592.980439 -294.686908 
L 592.024873 -299.186353 
L 592.392089 -303.685799 
L 594.062409 -308.185244 
L 596.979087 -312.68469 
L 601.043271 -317.184135 
L 606.111837 -321.68358 
L 611.999845 -326.183026 
L 618.488551 -330.682471 
L 625.338684 -335.181917 
L 632.307434 -339.681362 
L 639.166611 -344.180807 
L 645.719145 -348.680253 
L 651.811459 -353.179698 
L 657.340276 -357.679144 
L 662.253685 -362.178589 
L 666.547406 -366.678035 
L 670.257884 -371.17748 
L 673.453818 -375.676925 
L 676.227282 -380.176371 
L 678.684852 -384.675816 
L 680.938642 -389.175262 
L 683.097002 -393.674707 
L 685.255011 -398.174153 
L 687.485503 -402.673598 
L 689.83195 -407.173043 
L 692.304714 -411.672489 
L 694.881837 -416.171934 
L 697.5147 -420.67138 
L 700.137816 -425.170825 
L 702.681083 -429.67027 
L 705.082227 -434.169716 
L 707.297142 -438.669161 
L 709.306335 -443.168607 
L 711.116507 -447.668052 
L 712.757336 -452.167498 
L 714.274402 -456.666943 
L 715.719901 -461.166388 
L 717.143065 -465.665834 
L 718.582113 -470.165279 
L 720.059077 -474.664725 
L 721.578169 -479.16417 
L 723.12752 -483.663616 
L 724.683488 -488.163061 
L 726.216263 -492.662506 
L 727.695436 -497.161952 
L 729.09444 -501.661397 
L 730.393238 -506.160843 
L 731.579157 -510.660288 
L 732.646259 -515.159734 
L 733.59384 -519.659179 
L 734.424732 -524.158624 
L 735.143879 -528.65807 
L 735.757439 -533.157515 
L 736.272399 -537.656961 
L 736.696524 -542.156406 
L 737.038425 -546.655851 
L 737.307528 -551.155297 
L 737.513875 -555.654742 
L 737.667733 -560.154188 
L 738 -560.154188 
L 738 -560.154188 
L 738 -555.654742 
L 738 -551.155297 
L 738 -546.655851 
L 738 -542.156406 
L 738 -537.656961 
L 738 -533.157515 
L 738 -528.65807 
L 738 -524.158624 
L 738 -519.659179 
L 738 -515.159734 
L 738 -510.660288 
L 738 -506.160843 
L 738 -501.661397 
L 738 -497.161952 
L 738 -492.662506 
L 738 -488.163061 
L 738 -483.663616 
L 738 -479.16417 
L 738 -474.664725 
L 738 -470.165279 
L 738 -465.665834 
L 738 -461.166388 
L 738 -456.666943 
L 738 -452.167498 
L 738 -447.668052 
L 738 -443.168607 
L 738 -438.669161 
L 738 -434.169716 
L 738 -429.67027 
L 738 -425.170825 
L 738 -420.67138 
L 738 -416.171934 
L 738 -411.672489 
L 738 -407.173043 
L 738 -402.673598 
L 738 -398.174153 
L 738 -393.674707 
L 738 -389.175262 
L 738 -384.675816 
L 738 -380.176371 
L 738 -375.676925 
L 738 -371.17748 
L 738 -366.678035 
L 738 -362.178589 
L 738 -357.679144 
L 738 -353.179698 
L 738 -348.680253 
L 738 -344.180807 
L 738 -339.681362 
L 738 -335.181917 
L 738 -330.682471 
L 738 -326.183026 
L 738 -321.68358 
L 738 -317.184135 
L 738 -312.68469 
L 738 -308.185244 
L 738 -303.685799 
L 738 -299.186353 
L 738 -294.686908 
L 738 -290.187462 
L 738 -285.688017 
L 738 -281.188572 
L 738 -276.689126 
L 738 -272.189681 
L 738 -267.690235 
L 738 -263.19079 
L 738 -258.691344 
L 738 -254.191899 
L 738 -249.692454 
L 738 -245.193008 
L 738 -240.693563 
L 738 -236.194117 
L 738 -231.694672 
L 738 -227.195226 
L 738 -222.695781 
L 738 -218.196336 
L 738 -213.69689 
L 738 -209.197445 
L 738 -204.697999 
L 738 -200.198554 
L 738 -195.699109 
L 738 -191.199663 
L 738 -186.700218 
L 738 -182.200772 
L 738 -177.701327 
L 738 -173.201881 
L 738 -168.702436 
L 738 -164.202991 
L 738 -159.703545 
L 738 -155.2041 
L 738 -150.704654 
L 738 -146.205209 
L 738 -141.705763 
L 738 -137.206318 
L 738 -132.706873 
L 738 -128.207427 
L 738 -123.707982 
L 738 -119.208536 
L 738 -114.709091 
z
" id="mb138741df8" style="stroke:#797979;stroke-width:1.5;"/>
    </defs>
    <g clip-path="url(#p64affe6740)">
     <use style="fill:#b4d4df;stroke:#797979;stroke-width:1.5;" x="0" xlink:href="#mb138741df8" y="720"/>
    </g>
   </g>
   <g id="PolyCollection_4">
    <defs>
     <path d="M 739.674892 -114.779707 
L 738 -114.779707 
L 738 -118.785367 
L 738 -122.791028 
L 738 -126.796688 
L 738 -130.802349 
L 738 -134.808009 
L 738 -138.81367 
L 738 -142.81933 
L 738 -146.82499 
L 738 -150.830651 
L 738 -154.836311 
L 738 -158.841972 
L 738 -162.847632 
L 738 -166.853293 
L 738 -170.858953 
L 738 -174.864614 
L 738 -178.870274 
L 738 -182.875935 
L 738 -186.881595 
L 738 -190.887255 
L 738 -194.892916 
L 738 -198.898576 
L 738 -202.904237 
L 738 -206.909897 
L 738 -210.915558 
L 738 -214.921218 
L 738 -218.926879 
L 738 -222.932539 
L 738 -226.9382 
L 738 -230.94386 
L 738 -234.949521 
L 738 -238.955181 
L 738 -242.960841 
L 738 -246.966502 
L 738 -250.972162 
L 738 -254.977823 
L 738 -258.983483 
L 738 -262.989144 
L 738 -266.994804 
L 738 -271.000465 
L 738 -275.006125 
L 738 -279.011786 
L 738 -283.017446 
L 738 -287.023106 
L 738 -291.028767 
L 738 -295.034427 
L 738 -299.040088 
L 738 -303.045748 
L 738 -307.051409 
L 738 -311.057069 
L 738 -315.06273 
L 738 -319.06839 
L 738 -323.074051 
L 738 -327.079711 
L 738 -331.085372 
L 738 -335.091032 
L 738 -339.096692 
L 738 -343.102353 
L 738 -347.108013 
L 738 -351.113674 
L 738 -355.119334 
L 738 -359.124995 
L 738 -363.130655 
L 738 -367.136316 
L 738 -371.141976 
L 738 -375.147637 
L 738 -379.153297 
L 738 -383.158957 
L 738 -387.164618 
L 738 -391.170278 
L 738 -395.175939 
L 738 -399.181599 
L 738 -403.18726 
L 738 -407.19292 
L 738 -411.198581 
L 738 -415.204241 
L 738 -419.209902 
L 738 -423.215562 
L 738 -427.221223 
L 738 -431.226883 
L 738 -435.232543 
L 738 -439.238204 
L 738 -443.243864 
L 738 -447.249525 
L 738 -451.255185 
L 738 -455.260846 
L 738 -459.266506 
L 738 -463.272167 
L 738 -467.277827 
L 738 -471.283488 
L 738 -475.289148 
L 738 -479.294808 
L 738 -483.300469 
L 738 -487.306129 
L 738 -491.31179 
L 738 -495.31745 
L 738 -499.323111 
L 738 -503.328771 
L 738 -507.334432 
L 738 -511.340092 
L 738.612443 -511.340092 
L 738.612443 -511.340092 
L 738.861482 -507.334432 
L 739.186727 -503.328771 
L 739.601708 -499.323111 
L 740.119186 -495.31745 
L 740.750168 -491.31179 
L 741.502951 -487.306129 
L 742.382333 -483.300469 
L 743.389146 -479.294808 
L 744.520218 -475.289148 
L 745.768834 -471.283488 
L 747.125665 -467.277827 
L 748.580064 -463.272167 
L 750.121547 -459.266506 
L 751.741194 -455.260846 
L 753.432723 -451.255185 
L 755.192993 -447.249525 
L 757.021788 -443.243864 
L 758.920867 -439.238204 
L 760.892402 -435.232543 
L 762.937053 -431.226883 
L 765.052073 -427.221223 
L 767.229805 -423.215562 
L 769.456983 -419.209902 
L 771.715061 -415.204241 
L 773.981716 -411.198581 
L 776.233423 -407.19292 
L 778.44889 -403.18726 
L 780.612959 -399.181599 
L 782.72053 -395.175939 
L 784.780005 -391.170278 
L 786.815802 -387.164618 
L 788.86954 -383.158957 
L 790.999594 -379.153297 
L 793.278845 -375.147637 
L 795.79061 -371.141976 
L 798.62289 -367.136316 
L 801.861258 -363.130655 
L 805.580885 -359.124995 
L 809.83835 -355.119334 
L 814.66398 -351.113674 
L 820.055509 -347.108013 
L 825.973764 -343.102353 
L 832.340993 -339.096692 
L 839.042151 -335.091032 
L 845.929235 -331.085372 
L 852.82837 -327.079711 
L 859.549066 -323.074051 
L 865.894773 -319.06839 
L 871.673714 -315.06273 
L 876.708948 -311.057069 
L 880.846792 -307.051409 
L 883.962971 -303.045748 
L 885.966294 -299.040088 
L 886.8 -295.034427 
L 886.441267 -291.028767 
L 884.899518 -287.023106 
L 882.214163 -283.017446 
L 878.452258 -279.011786 
L 873.706279 -275.006125 
L 868.091956 -271.000465 
L 861.745877 -266.994804 
L 854.8225 -262.989144 
L 847.490235 -258.983483 
L 839.926452 -254.977823 
L 832.311442 -250.972162 
L 824.821624 -246.966502 
L 817.622412 -242.960841 
L 810.861261 -238.955181 
L 804.66138 -234.949521 
L 799.116532 -230.94386 
L 794.287237 -226.9382 
L 790.198567 -222.932539 
L 786.839661 -218.926879 
L 784.16501 -214.921218 
L 782.097549 -210.915558 
L 780.53353 -206.909897 
L 779.34907 -202.904237 
L 778.408172 -198.898576 
L 777.571798 -194.892916 
L 776.707432 -190.887255 
L 775.698371 -186.881595 
L 774.451906 -182.875935 
L 772.905541 -178.870274 
L 771.030574 -174.864614 
L 768.832587 -170.858953 
L 766.348794 -166.853293 
L 763.64254 -162.847632 
L 760.795655 -158.841972 
L 757.899575 -154.836311 
L 755.046317 -150.830651 
L 752.320324 -146.82499 
L 749.792004 -142.81933 
L 747.513514 -138.81367 
L 745.516965 -134.808009 
L 743.814884 -130.802349 
L 742.402519 -126.796688 
L 741.261377 -122.791028 
L 740.363359 -118.785367 
L 739.674892 -114.779707 
z
" id="m4444c1e431" style="stroke:#797979;stroke-width:1.5;"/>
    </defs>
    <g clip-path="url(#p64affe6740)">
     <use style="fill:#f6bfc7;stroke:#797979;stroke-width:1.5;" x="0" xlink:href="#m4444c1e431" y="720"/>
    </g>
   </g>
   <g id="PolyCollection_5">
    <defs>
     <path d="M 1110 -132.757378 
L 1109.254068 -132.757378 
L 1108.621014 -137.077036 
L 1107.638644 -141.396693 
L 1106.247656 -145.71635 
L 1104.453497 -150.036008 
L 1102.349966 -154.355665 
L 1100.11438 -158.675322 
L 1097.967733 -162.99498 
L 1096.11137 -167.314637 
L 1094.666679 -171.634294 
L 1093.645427 -175.953952 
L 1092.963477 -180.273609 
L 1092.488142 -184.593266 
L 1092.09277 -188.912924 
L 1091.690422 -193.232581 
L 1091.231656 -197.552238 
L 1090.671471 -201.871895 
L 1089.926332 -206.191553 
L 1088.845591 -210.51121 
L 1087.211622 -214.830867 
L 1084.766732 -219.150525 
L 1081.253408 -223.470182 
L 1076.454103 -227.789839 
L 1070.224911 -232.109497 
L 1062.525012 -236.429154 
L 1053.443844 -240.748811 
L 1043.221298 -245.068469 
L 1032.249149 -249.388126 
L 1021.04059 -253.707783 
L 1010.161597 -258.027441 
L 1000.1319 -262.347098 
L 991.320283 -266.666755 
L 983.871648 -270.986413 
L 977.702933 -275.30607 
L 972.5858 -279.625727 
L 968.298224 -283.945384 
L 964.787792 -288.265042 
L 962.269442 -292.584699 
L 961.2 -296.904356 
L 962.131049 -301.224014 
L 965.508558 -305.543671 
L 971.515143 -309.863328 
L 980.016093 -314.182986 
L 990.600507 -318.502643 
L 1002.661153 -322.8223 
L 1015.465371 -327.141958 
L 1028.215095 -331.461615 
L 1040.125951 -335.781272 
L 1050.542313 -340.10093 
L 1059.062953 -344.420587 
L 1065.62184 -348.740244 
L 1070.478055 -353.059902 
L 1074.110807 -357.379559 
L 1077.060745 -361.699216 
L 1079.779851 -366.018873 
L 1082.540413 -370.338531 
L 1085.420232 -374.658188 
L 1088.347837 -378.977845 
L 1091.174893 -383.297503 
L 1093.746308 -387.61716 
L 1095.951931 -391.936817 
L 1097.755048 -396.256475 
L 1099.19716 -400.576132 
L 1100.379648 -404.895789 
L 1101.426676 -409.215447 
L 1102.440992 -413.535104 
L 1103.469631 -417.854761 
L 1104.493877 -422.174419 
L 1105.446459 -426.494076 
L 1106.24566 -430.813733 
L 1106.829437 -435.13339 
L 1107.176235 -439.453048 
L 1107.308824 -443.772705 
L 1107.285337 -448.092362 
L 1107.183659 -452.41202 
L 1107.083444 -456.731677 
L 1107.048631 -461.051334 
L 1107.114251 -465.370992 
L 1107.281938 -469.690649 
L 1107.525974 -474.010306 
L 1107.806656 -478.329964 
L 1108.084111 -482.649621 
L 1108.32681 -486.969278 
L 1108.513808 -491.288936 
L 1108.633958 -495.608593 
L 1108.685686 -499.92825 
L 1108.677955 -504.247908 
L 1108.63033 -508.567565 
L 1108.570099 -512.887222 
L 1108.526625 -517.206879 
L 1108.524978 -521.526537 
L 1108.580952 -525.846194 
L 1108.698368 -530.165851 
L 1108.868772 -534.485509 
L 1109.073574 -538.805166 
L 1109.288559 -543.124823 
L 1109.489906 -547.444481 
L 1109.659797 -551.764138 
L 1109.789581 -556.083795 
L 1109.879595 -560.403453 
L 1110 -560.403453 
L 1110 -560.403453 
L 1110 -556.083795 
L 1110 -551.764138 
L 1110 -547.444481 
L 1110 -543.124823 
L 1110 -538.805166 
L 1110 -534.485509 
L 1110 -530.165851 
L 1110 -525.846194 
L 1110 -521.526537 
L 1110 -517.206879 
L 1110 -512.887222 
L 1110 -508.567565 
L 1110 -504.247908 
L 1110 -499.92825 
L 1110 -495.608593 
L 1110 -491.288936 
L 1110 -486.969278 
L 1110 -482.649621 
L 1110 -478.329964 
L 1110 -474.010306 
L 1110 -469.690649 
L 1110 -465.370992 
L 1110 -461.051334 
L 1110 -456.731677 
L 1110 -452.41202 
L 1110 -448.092362 
L 1110 -443.772705 
L 1110 -439.453048 
L 1110 -435.13339 
L 1110 -430.813733 
L 1110 -426.494076 
L 1110 -422.174419 
L 1110 -417.854761 
L 1110 -413.535104 
L 1110 -409.215447 
L 1110 -404.895789 
L 1110 -400.576132 
L 1110 -396.256475 
L 1110 -391.936817 
L 1110 -387.61716 
L 1110 -383.297503 
L 1110 -378.977845 
L 1110 -374.658188 
L 1110 -370.338531 
L 1110 -366.018873 
L 1110 -361.699216 
L 1110 -357.379559 
L 1110 -353.059902 
L 1110 -348.740244 
L 1110 -344.420587 
L 1110 -340.10093 
L 1110 -335.781272 
L 1110 -331.461615 
L 1110 -327.141958 
L 1110 -322.8223 
L 1110 -318.502643 
L 1110 -314.182986 
L 1110 -309.863328 
L 1110 -305.543671 
L 1110 -301.224014 
L 1110 -296.904356 
L 1110 -292.584699 
L 1110 -288.265042 
L 1110 -283.945384 
L 1110 -279.625727 
L 1110 -275.30607 
L 1110 -270.986413 
L 1110 -266.666755 
L 1110 -262.347098 
L 1110 -258.027441 
L 1110 -253.707783 
L 1110 -249.388126 
L 1110 -245.068469 
L 1110 -240.748811 
L 1110 -236.429154 
L 1110 -232.109497 
L 1110 -227.789839 
L 1110 -223.470182 
L 1110 -219.150525 
L 1110 -214.830867 
L 1110 -210.51121 
L 1110 -206.191553 
L 1110 -201.871895 
L 1110 -197.552238 
L 1110 -193.232581 
L 1110 -188.912924 
L 1110 -184.593266 
L 1110 -180.273609 
L 1110 -175.953952 
L 1110 -171.634294 
L 1110 -167.314637 
L 1110 -162.99498 
L 1110 -158.675322 
L 1110 -154.355665 
L 1110 -150.036008 
L 1110 -145.71635 
L 1110 -141.396693 
L 1110 -137.077036 
L 1110 -132.757378 
z
" id="md6a268b2df" style="stroke:#797979;stroke-width:1.5;"/>
    </defs>
    <g clip-path="url(#p64affe6740)">
     <use style="fill:#b4d4df;stroke:#797979;stroke-width:1.5;" x="0" xlink:href="#md6a268b2df" y="720"/>
    </g>
   </g>
   <g id="PolyCollection_6">
    <defs>
     <path d="M 1111.515392 -123.769867 
L 1110 -123.769867 
L 1110 -127.707529 
L 1110 -131.645191 
L 1110 -135.582854 
L 1110 -139.520516 
L 1110 -143.458178 
L 1110 -147.39584 
L 1110 -151.333503 
L 1110 -155.271165 
L 1110 -159.208827 
L 1110 -163.146489 
L 1110 -167.084151 
L 1110 -171.021814 
L 1110 -174.959476 
L 1110 -178.897138 
L 1110 -182.8348 
L 1110 -186.772463 
L 1110 -190.710125 
L 1110 -194.647787 
L 1110 -198.585449 
L 1110 -202.523111 
L 1110 -206.460774 
L 1110 -210.398436 
L 1110 -214.336098 
L 1110 -218.27376 
L 1110 -222.211423 
L 1110 -226.149085 
L 1110 -230.086747 
L 1110 -234.024409 
L 1110 -237.962071 
L 1110 -241.899734 
L 1110 -245.837396 
L 1110 -249.775058 
L 1110 -253.71272 
L 1110 -257.650383 
L 1110 -261.588045 
L 1110 -265.525707 
L 1110 -269.463369 
L 1110 -273.401032 
L 1110 -277.338694 
L 1110 -281.276356 
L 1110 -285.214018 
L 1110 -289.15168 
L 1110 -293.089343 
L 1110 -297.027005 
L 1110 -300.964667 
L 1110 -304.902329 
L 1110 -308.839992 
L 1110 -312.777654 
L 1110 -316.715316 
L 1110 -320.652978 
L 1110 -324.59064 
L 1110 -328.528303 
L 1110 -332.465965 
L 1110 -336.403627 
L 1110 -340.341289 
L 1110 -344.278952 
L 1110 -348.216614 
L 1110 -352.154276 
L 1110 -356.091938 
L 1110 -360.0296 
L 1110 -363.967263 
L 1110 -367.904925 
L 1110 -371.842587 
L 1110 -375.780249 
L 1110 -379.717912 
L 1110 -383.655574 
L 1110 -387.593236 
L 1110 -391.530898 
L 1110 -395.468561 
L 1110 -399.406223 
L 1110 -403.343885 
L 1110 -407.281547 
L 1110 -411.219209 
L 1110 -415.156872 
L 1110 -419.094534 
L 1110 -423.032196 
L 1110 -426.969858 
L 1110 -430.907521 
L 1110 -434.845183 
L 1110 -438.782845 
L 1110 -442.720507 
L 1110 -446.658169 
L 1110 -450.595832 
L 1110 -454.533494 
L 1110 -458.471156 
L 1110 -462.408818 
L 1110 -466.346481 
L 1110 -470.284143 
L 1110 -474.221805 
L 1110 -478.159467 
L 1110 -482.097129 
L 1110 -486.034792 
L 1110 -489.972454 
L 1110 -493.910116 
L 1110 -497.847778 
L 1110 -501.785441 
L 1110 -505.723103 
L 1110 -509.660765 
L 1110 -513.598427 
L 1110.205678 -513.598427 
L 1110.205678 -513.598427 
L 1110.305118 -509.660765 
L 1110.433468 -505.723103 
L 1110.589733 -501.785441 
L 1110.768357 -497.847778 
L 1110.958698 -493.910116 
L 1111.14555 -489.972454 
L 1111.310889 -486.034792 
L 1111.436655 -482.097129 
L 1111.508027 -478.159467 
L 1111.516419 -474.221805 
L 1111.461439 -470.284143 
L 1111.351339 -466.346481 
L 1111.201946 -462.408818 
L 1111.034556 -458.471156 
L 1110.873565 -454.533494 
L 1110.744657 -450.595832 
L 1110.674031 -446.658169 
L 1110.688716 -442.720507 
L 1110.817468 -438.782845 
L 1111.091384 -434.845183 
L 1111.543271 -430.907521 
L 1112.205086 -426.969858 
L 1113.103309 -423.032196 
L 1114.252913 -419.094534 
L 1115.651349 -415.156872 
L 1117.274434 -411.219209 
L 1119.075995 -407.281547 
L 1120.992427 -403.343885 
L 1122.952055 -399.406223 
L 1124.887754 -395.468561 
L 1126.750131 -391.530898 
L 1128.518212 -387.593236 
L 1130.205254 -383.655574 
L 1131.858783 -379.717912 
L 1133.55567 -375.780249 
L 1135.39425 -371.842587 
L 1137.485588 -367.904925 
L 1139.944974 -363.967263 
L 1142.883171 -360.0296 
L 1146.395752 -356.091938 
L 1150.548993 -352.154276 
L 1155.362546 -348.216614 
L 1160.791931 -344.278952 
L 1166.716562 -340.341289 
L 1172.939961 -336.403627 
L 1179.207062 -332.465965 
L 1185.239091 -328.528303 
L 1190.780656 -324.59064 
L 1195.648565 -320.652978 
L 1199.769423 -316.715316 
L 1203.194569 -312.777654 
L 1206.086109 -308.839992 
L 1208.675337 -304.902329 
L 1211.202392 -300.964667 
L 1213.851458 -297.027005 
L 1216.697521 -293.089343 
L 1219.67813 -289.15168 
L 1222.59732 -285.214018 
L 1225.160546 -281.276356 
L 1227.031451 -277.338694 
L 1227.895963 -273.401032 
L 1227.518215 -269.463369 
L 1225.776378 -265.525707 
L 1222.673194 -261.588045 
L 1218.323396 -257.650383 
L 1212.925733 -253.71272 
L 1206.729303 -249.775058 
L 1200.002506 -245.837396 
L 1193.009346 -241.899734 
L 1185.994004 -237.962071 
L 1179.172027 -234.024409 
L 1172.725687 -230.086747 
L 1166.801682 -226.149085 
L 1161.510415 -222.211423 
L 1156.926822 -218.27376 
L 1153.092602 -214.336098 
L 1150.019051 -210.398436 
L 1147.688999 -206.460774 
L 1146.056337 -202.523111 
L 1145.042681 -198.585449 
L 1144.532546 -194.647787 
L 1144.37032 -190.710125 
L 1144.363266 -186.772463 
L 1144.293948 -182.8348 
L 1143.942857 -178.897138 
L 1143.118313 -174.959476 
L 1141.687378 -171.021814 
L 1139.599909 -167.084151 
L 1136.898822 -163.146489 
L 1133.713037 -159.208827 
L 1130.234259 -155.271165 
L 1126.683119 -151.333503 
L 1123.272781 -147.39584 
L 1120.178171 -143.458178 
L 1117.516627 -139.520516 
L 1115.342145 -135.582854 
L 1113.651715 -131.645191 
L 1112.399707 -127.707529 
L 1111.515392 -123.769867 
z
" id="m384d1b97cf" style="stroke:#797979;stroke-width:1.5;"/>
    </defs>
    <g clip-path="url(#p64affe6740)">
     <use style="fill:#f6bfc7;stroke:#797979;stroke-width:1.5;" x="0" xlink:href="#m384d1b97cf" y="720"/>
    </g>
   </g>
   <g id="patch_3">
    <path clip-path="url(#p64affe6740)" d="M 366 559.219731 
L 366 559.219731 
L 366 559.219731 
L 366 559.219731 
z
" style="fill:#b4d4df;stroke:#797979;stroke-linejoin:miter;stroke-width:0.75;"/>
   </g>
   <g id="patch_4">
    <path clip-path="url(#p64affe6740)" d="M 366 559.219731 
L 366 559.219731 
L 366 559.219731 
L 366 559.219731 
z
" style="fill:#f6bfc7;stroke:#797979;stroke-linejoin:miter;stroke-width:0.75;"/>
   </g>
   <g id="line2d_6">
    <path clip-path="url(#p64affe6740)" d="M 269.192589 397.991298 
L 366 397.991298 
" style="fill:none;stroke:#797979;stroke-dasharray:3.375,3.375;stroke-dashoffset:0;stroke-width:1.5;"/>
   </g>
   <g id="line2d_7">
    <path clip-path="url(#p64affe6740)" d="M 223.598637 349.247818 
L 366 349.247818 
" style="fill:none;stroke:#797979;stroke-dasharray:6.75,6.75;stroke-dashoffset:0;stroke-width:1.5;"/>
   </g>
   <g id="line2d_8">
    <path clip-path="url(#p64affe6740)" d="M 240.656708 309.253168 
L 366 309.253168 
" style="fill:none;stroke:#797979;stroke-dasharray:3.375,3.375;stroke-dashoffset:0;stroke-width:1.5;"/>
   </g>
   <g id="line2d_9">
    <path clip-path="url(#p64affe6740)" d="M 366 430.849639 
L 474.336394 430.849639 
" style="fill:none;stroke:#797979;stroke-dasharray:3.375,3.375;stroke-dashoffset:0;stroke-width:1.5;"/>
   </g>
   <g id="line2d_10">
    <path clip-path="url(#p64affe6740)" d="M 366 379.243805 
L 486.336233 379.243805 
" style="fill:none;stroke:#797979;stroke-dasharray:6.75,6.75;stroke-dashoffset:0;stroke-width:1.5;"/>
   </g>
   <g id="line2d_11">
    <path clip-path="url(#p64affe6740)" d="M 366 319.25183 
L 456.380066 319.25183 
" style="fill:none;stroke:#797979;stroke-dasharray:3.375,3.375;stroke-dashoffset:0;stroke-width:1.5;"/>
   </g>
   <g id="line2d_12">
    <path clip-path="url(#p64affe6740)" d="M 610.70982 444.235112 
L 738 444.235112 
" style="fill:none;stroke:#797979;stroke-dasharray:3.375,3.375;stroke-dashoffset:0;stroke-width:1.5;"/>
   </g>
   <g id="line2d_13">
    <path clip-path="url(#p64affe6740)" d="M 598.389296 409.239793 
L 738 409.239793 
" style="fill:none;stroke:#797979;stroke-dasharray:6.75,6.75;stroke-dashoffset:0;stroke-width:1.5;"/>
   </g>
   <g id="line2d_14">
    <path clip-path="url(#p64affe6740)" d="M 658.146874 361.746146 
L 738 361.746146 
" style="fill:none;stroke:#797979;stroke-dasharray:3.375,3.375;stroke-dashoffset:0;stroke-width:1.5;"/>
   </g>
   <g id="line2d_15">
    <path clip-path="url(#p64affe6740)" d="M 738 457.983273 
L 853.654275 457.983273 
" style="fill:none;stroke:#797979;stroke-dasharray:3.375,3.375;stroke-dashoffset:0;stroke-width:1.5;"/>
   </g>
   <g id="line2d_16">
    <path clip-path="url(#p64affe6740)" d="M 738 419.238455 
L 884.486631 419.238455 
" style="fill:none;stroke:#797979;stroke-dasharray:6.75,6.75;stroke-dashoffset:0;stroke-width:1.5;"/>
   </g>
   <g id="line2d_17">
    <path clip-path="url(#p64affe6740)" d="M 738 389.242468 
L 844.849943 389.242468 
" style="fill:none;stroke:#797979;stroke-dasharray:3.375,3.375;stroke-dashoffset:0;stroke-width:1.5;"/>
   </g>
   <g id="line2d_18">
    <path clip-path="url(#p64affe6740)" d="M 992.50708 454.233774 
L 1110 454.233774 
" style="fill:none;stroke:#797979;stroke-dasharray:3.375,3.375;stroke-dashoffset:0;stroke-width:1.5;"/>
   </g>
   <g id="line2d_19">
    <path clip-path="url(#p64affe6740)" d="M 963.746747 425.652874 
L 1110 425.652874 
" style="fill:none;stroke:#797979;stroke-dasharray:6.75,6.75;stroke-dashoffset:0;stroke-width:1.5;"/>
   </g>
   <g id="line2d_20">
    <path clip-path="url(#p64affe6740)" d="M 1003.734542 399.24113 
L 1110 399.24113 
" style="fill:none;stroke:#797979;stroke-dasharray:3.375,3.375;stroke-dashoffset:0;stroke-width:1.5;"/>
   </g>
   <g id="line2d_21">
    <path clip-path="url(#p64affe6740)" d="M 1110 470.801048 
L 1205.76201 470.801048 
" style="fill:none;stroke:#797979;stroke-dasharray:3.375,3.375;stroke-dashoffset:0;stroke-width:1.5;"/>
   </g>
   <g id="line2d_22">
    <path clip-path="url(#p64affe6740)" d="M 1110 444.355731 
L 1225.861137 444.355731 
" style="fill:none;stroke:#797979;stroke-dasharray:6.75,6.75;stroke-dashoffset:0;stroke-width:1.5;"/>
   </g>
   <g id="line2d_23">
    <path clip-path="url(#p64affe6740)" d="M 1110 404.240462 
L 1198.871729 404.240462 
" style="fill:none;stroke:#797979;stroke-dasharray:3.375,3.375;stroke-dashoffset:0;stroke-width:1.5;"/>
   </g>
   <g id="patch_5">
    <path d="M 180 630 
L 180 86.4 
" style="fill:none;stroke:#cccccc;stroke-linecap:square;stroke-linejoin:miter;stroke-width:1.25;"/>
   </g>
   <g id="patch_6">
    <path d="M 1296 630 
L 1296 86.4 
" style="fill:none;stroke:#cccccc;stroke-linecap:square;stroke-linejoin:miter;stroke-width:1.25;"/>
   </g>
   <g id="patch_7">
    <path d="M 180 630 
L 1296 630 
" style="fill:none;stroke:#cccccc;stroke-linecap:square;stroke-linejoin:miter;stroke-width:1.25;"/>
   </g>
   <g id="patch_8">
    <path d="M 180 86.4 
L 1296 86.4 
" style="fill:none;stroke:#cccccc;stroke-linecap:square;stroke-linejoin:miter;stroke-width:1.25;"/>
   </g>
   <g id="text_11">
    <!-- Violinplot PClass VS. Age Gender filtered -->
    <defs>
     <path d="M 28.171875 0 
L 0.4375 71.578125 
L 10.6875 71.578125 
L 29.296875 19.578125 
Q 31.546875 13.328125 33.0625 7.859375 
Q 34.71875 13.71875 36.921875 19.578125 
L 56.25 71.578125 
L 65.921875 71.578125 
L 37.890625 0 
z
" id="ArialMT-86"/>
     <path d="M 6.640625 61.46875 
L 6.640625 71.578125 
L 15.4375 71.578125 
L 15.4375 61.46875 
z
M 6.640625 0 
L 6.640625 51.859375 
L 15.4375 51.859375 
L 15.4375 0 
z
" id="ArialMT-105"/>
     <path d="M 3.328125 25.921875 
Q 3.328125 40.328125 11.328125 47.265625 
Q 18.015625 53.03125 27.640625 53.03125 
Q 38.328125 53.03125 45.109375 46.015625 
Q 51.90625 39.015625 51.90625 26.65625 
Q 51.90625 16.65625 48.90625 10.90625 
Q 45.90625 5.171875 40.15625 2 
Q 34.421875 -1.171875 27.640625 -1.171875 
Q 16.75 -1.171875 10.03125 5.8125 
Q 3.328125 12.796875 3.328125 25.921875 
z
M 12.359375 25.921875 
Q 12.359375 15.96875 16.703125 11.015625 
Q 21.046875 6.0625 27.640625 6.0625 
Q 34.1875 6.0625 38.53125 11.03125 
Q 42.875 16.015625 42.875 26.21875 
Q 42.875 35.84375 38.5 40.796875 
Q 34.125 45.75 27.640625 45.75 
Q 21.046875 45.75 16.703125 40.8125 
Q 12.359375 35.890625 12.359375 25.921875 
z
" id="ArialMT-111"/>
     <path d="M 6.59375 0 
L 6.59375 51.859375 
L 14.5 51.859375 
L 14.5 44.484375 
Q 20.21875 53.03125 31 53.03125 
Q 35.6875 53.03125 39.625 51.34375 
Q 43.5625 49.65625 45.515625 46.921875 
Q 47.46875 44.1875 48.25 40.4375 
Q 48.734375 37.984375 48.734375 31.890625 
L 48.734375 0 
L 39.9375 0 
L 39.9375 31.546875 
Q 39.9375 36.921875 38.90625 39.578125 
Q 37.890625 42.234375 35.28125 43.8125 
Q 32.671875 45.40625 29.15625 45.40625 
Q 23.53125 45.40625 19.453125 41.84375 
Q 15.375 38.28125 15.375 28.328125 
L 15.375 0 
z
" id="ArialMT-110"/>
     <path d="M 6.59375 -19.875 
L 6.59375 51.859375 
L 14.59375 51.859375 
L 14.59375 45.125 
Q 17.4375 49.078125 21 51.046875 
Q 24.5625 53.03125 29.640625 53.03125 
Q 36.28125 53.03125 41.359375 49.609375 
Q 46.4375 46.1875 49.015625 39.953125 
Q 51.609375 33.734375 51.609375 26.3125 
Q 51.609375 18.359375 48.75 11.984375 
Q 45.90625 5.609375 40.453125 2.21875 
Q 35.015625 -1.171875 29 -1.171875 
Q 24.609375 -1.171875 21.109375 0.6875 
Q 17.625 2.546875 15.375 5.375 
L 15.375 -19.875 
z
M 14.546875 25.640625 
Q 14.546875 15.625 18.59375 10.84375 
Q 22.65625 6.0625 28.421875 6.0625 
Q 34.28125 6.0625 38.453125 11.015625 
Q 42.625 15.96875 42.625 26.375 
Q 42.625 36.28125 38.546875 41.203125 
Q 34.46875 46.140625 28.8125 46.140625 
Q 23.1875 46.140625 18.859375 40.890625 
Q 14.546875 35.640625 14.546875 25.640625 
z
" id="ArialMT-112"/>
     <path d="M 25.78125 7.859375 
L 27.046875 0.09375 
Q 23.34375 -0.6875 20.40625 -0.6875 
Q 15.625 -0.6875 12.984375 0.828125 
Q 10.359375 2.34375 9.28125 4.8125 
Q 8.203125 7.28125 8.203125 15.1875 
L 8.203125 45.015625 
L 1.765625 45.015625 
L 1.765625 51.859375 
L 8.203125 51.859375 
L 8.203125 64.703125 
L 16.9375 69.96875 
L 16.9375 51.859375 
L 25.78125 51.859375 
L 25.78125 45.015625 
L 16.9375 45.015625 
L 16.9375 14.703125 
Q 16.9375 10.9375 17.40625 9.859375 
Q 17.875 8.796875 18.921875 8.15625 
Q 19.96875 7.515625 21.921875 7.515625 
Q 23.390625 7.515625 25.78125 7.859375 
z
" id="ArialMT-116"/>
     <path id="ArialMT-32"/>
     <path d="M 58.796875 25.09375 
L 68.265625 22.703125 
Q 65.28125 11.03125 57.546875 4.90625 
Q 49.8125 -1.21875 38.625 -1.21875 
Q 27.046875 -1.21875 19.796875 3.484375 
Q 12.546875 8.203125 8.765625 17.140625 
Q 4.984375 26.078125 4.984375 36.328125 
Q 4.984375 47.515625 9.25 55.828125 
Q 13.53125 64.15625 21.40625 68.46875 
Q 29.296875 72.796875 38.765625 72.796875 
Q 49.515625 72.796875 56.828125 67.328125 
Q 64.15625 61.859375 67.046875 51.953125 
L 57.71875 49.75 
Q 55.21875 57.5625 50.484375 61.125 
Q 45.75 64.703125 38.578125 64.703125 
Q 30.328125 64.703125 24.78125 60.734375 
Q 19.234375 56.78125 16.984375 50.109375 
Q 14.75 43.453125 14.75 36.375 
Q 14.75 27.25 17.40625 20.4375 
Q 20.0625 13.625 25.671875 10.25 
Q 31.296875 6.890625 37.84375 6.890625 
Q 45.796875 6.890625 51.3125 11.46875 
Q 56.84375 16.0625 58.796875 25.09375 
z
" id="ArialMT-67"/>
     <path d="M 4.5 23 
L 13.421875 23.78125 
Q 14.0625 18.40625 16.375 14.96875 
Q 18.703125 11.53125 23.578125 9.40625 
Q 28.46875 7.28125 34.578125 7.28125 
Q 39.984375 7.28125 44.140625 8.890625 
Q 48.296875 10.5 50.3125 13.296875 
Q 52.34375 16.109375 52.34375 19.4375 
Q 52.34375 22.796875 50.390625 25.3125 
Q 48.4375 27.828125 43.953125 29.546875 
Q 41.0625 30.671875 31.203125 33.03125 
Q 21.34375 35.40625 17.390625 37.5 
Q 12.25 40.1875 9.734375 44.15625 
Q 7.234375 48.140625 7.234375 53.078125 
Q 7.234375 58.5 10.296875 63.203125 
Q 13.375 67.921875 19.28125 70.359375 
Q 25.203125 72.796875 32.421875 72.796875 
Q 40.375 72.796875 46.453125 70.234375 
Q 52.546875 67.671875 55.8125 62.6875 
Q 59.078125 57.71875 59.328125 51.421875 
L 50.25 50.734375 
Q 49.515625 57.515625 45.28125 60.984375 
Q 41.0625 64.453125 32.8125 64.453125 
Q 24.21875 64.453125 20.28125 61.296875 
Q 16.359375 58.15625 16.359375 53.71875 
Q 16.359375 49.859375 19.140625 47.359375 
Q 21.875 44.875 33.421875 42.265625 
Q 44.96875 39.65625 49.265625 37.703125 
Q 55.515625 34.8125 58.484375 30.390625 
Q 61.46875 25.984375 61.46875 20.21875 
Q 61.46875 14.5 58.203125 9.4375 
Q 54.9375 4.390625 48.796875 1.578125 
Q 42.671875 -1.21875 35.015625 -1.21875 
Q 25.296875 -1.21875 18.71875 1.609375 
Q 12.15625 4.4375 8.421875 10.125 
Q 4.6875 15.828125 4.5 23 
z
" id="ArialMT-83"/>
     <path d="M 9.078125 0 
L 9.078125 10.015625 
L 19.09375 10.015625 
L 19.09375 0 
z
" id="ArialMT-46"/>
     <path d="M 41.21875 28.078125 
L 41.21875 36.46875 
L 71.53125 36.53125 
L 71.53125 9.96875 
Q 64.546875 4.390625 57.125 1.578125 
Q 49.703125 -1.21875 41.890625 -1.21875 
Q 31.34375 -1.21875 22.71875 3.296875 
Q 14.109375 7.8125 9.71875 16.359375 
Q 5.328125 24.90625 5.328125 35.453125 
Q 5.328125 45.90625 9.6875 54.953125 
Q 14.0625 64.015625 22.265625 68.40625 
Q 30.46875 72.796875 41.15625 72.796875 
Q 48.921875 72.796875 55.1875 70.28125 
Q 61.46875 67.78125 65.03125 63.28125 
Q 68.609375 58.796875 70.453125 51.5625 
L 61.921875 49.21875 
Q 60.296875 54.6875 57.90625 57.8125 
Q 55.515625 60.9375 51.0625 62.8125 
Q 46.625 64.703125 41.21875 64.703125 
Q 34.71875 64.703125 29.984375 62.71875 
Q 25.25 60.75 22.34375 57.515625 
Q 19.4375 54.296875 17.828125 50.4375 
Q 15.09375 43.796875 15.09375 36.03125 
Q 15.09375 26.46875 18.390625 20.015625 
Q 21.6875 13.578125 27.984375 10.453125 
Q 34.28125 7.328125 41.359375 7.328125 
Q 47.515625 7.328125 53.375 9.6875 
Q 59.234375 12.0625 62.25 14.75 
L 62.25 28.078125 
z
" id="ArialMT-71"/>
     <path d="M 40.234375 0 
L 40.234375 6.546875 
Q 35.296875 -1.171875 25.734375 -1.171875 
Q 19.53125 -1.171875 14.328125 2.25 
Q 9.125 5.671875 6.265625 11.796875 
Q 3.421875 17.921875 3.421875 25.875 
Q 3.421875 33.640625 6 39.96875 
Q 8.59375 46.296875 13.765625 49.65625 
Q 18.953125 53.03125 25.34375 53.03125 
Q 30.03125 53.03125 33.6875 51.046875 
Q 37.359375 49.078125 39.65625 45.90625 
L 39.65625 71.578125 
L 48.390625 71.578125 
L 48.390625 0 
z
M 12.453125 25.875 
Q 12.453125 15.921875 16.640625 10.984375 
Q 20.84375 6.0625 26.5625 6.0625 
Q 32.328125 6.0625 36.34375 10.765625 
Q 40.375 15.484375 40.375 25.140625 
Q 40.375 35.796875 36.265625 40.765625 
Q 32.171875 45.75 26.171875 45.75 
Q 20.3125 45.75 16.375 40.96875 
Q 12.453125 36.1875 12.453125 25.875 
z
" id="ArialMT-100"/>
     <path d="M 6.5 0 
L 6.5 51.859375 
L 14.40625 51.859375 
L 14.40625 44 
Q 17.4375 49.515625 20 51.265625 
Q 22.5625 53.03125 25.640625 53.03125 
Q 30.078125 53.03125 34.671875 50.203125 
L 31.640625 42.046875 
Q 28.421875 43.953125 25.203125 43.953125 
Q 22.3125 43.953125 20.015625 42.21875 
Q 17.71875 40.484375 16.75 37.40625 
Q 15.28125 32.71875 15.28125 27.15625 
L 15.28125 0 
z
" id="ArialMT-114"/>
     <path d="M 8.6875 0 
L 8.6875 45.015625 
L 0.921875 45.015625 
L 0.921875 51.859375 
L 8.6875 51.859375 
L 8.6875 57.375 
Q 8.6875 62.59375 9.625 65.140625 
Q 10.890625 68.5625 14.078125 70.671875 
Q 17.28125 72.796875 23.046875 72.796875 
Q 26.765625 72.796875 31.25 71.921875 
L 29.9375 64.265625 
Q 27.203125 64.75 24.75 64.75 
Q 20.75 64.75 19.09375 63.03125 
Q 17.4375 61.328125 17.4375 56.640625 
L 17.4375 51.859375 
L 27.546875 51.859375 
L 27.546875 45.015625 
L 17.4375 45.015625 
L 17.4375 0 
z
" id="ArialMT-102"/>
    </defs>
    <g style="fill:#262626;" transform="translate(517.906875 80.4)scale(0.24 -0.24)">
     <use xlink:href="#ArialMT-86"/>
     <use x="66.683594" xlink:href="#ArialMT-105"/>
     <use x="88.900391" xlink:href="#ArialMT-111"/>
     <use x="144.515625" xlink:href="#ArialMT-108"/>
     <use x="166.732422" xlink:href="#ArialMT-105"/>
     <use x="188.949219" xlink:href="#ArialMT-110"/>
     <use x="244.564453" xlink:href="#ArialMT-112"/>
     <use x="300.179688" xlink:href="#ArialMT-108"/>
     <use x="322.396484" xlink:href="#ArialMT-111"/>
     <use x="378.011719" xlink:href="#ArialMT-116"/>
     <use x="405.794922" xlink:href="#ArialMT-32"/>
     <use x="433.578125" xlink:href="#ArialMT-80"/>
     <use x="500.277344" xlink:href="#ArialMT-67"/>
     <use x="572.494141" xlink:href="#ArialMT-108"/>
     <use x="594.710938" xlink:href="#ArialMT-97"/>
     <use x="650.326172" xlink:href="#ArialMT-115"/>
     <use x="700.326172" xlink:href="#ArialMT-115"/>
     <use x="750.326172" xlink:href="#ArialMT-32"/>
     <use x="778.109375" xlink:href="#ArialMT-86"/>
     <use x="844.808594" xlink:href="#ArialMT-83"/>
     <use x="911.507812" xlink:href="#ArialMT-46"/>
     <use x="939.291016" xlink:href="#ArialMT-32"/>
     <use x="966.996094" xlink:href="#ArialMT-65"/>
     <use x="1033.695312" xlink:href="#ArialMT-103"/>
     <use x="1089.310547" xlink:href="#ArialMT-101"/>
     <use x="1144.925781" xlink:href="#ArialMT-32"/>
     <use x="1172.708984" xlink:href="#ArialMT-71"/>
     <use x="1250.492188" xlink:href="#ArialMT-101"/>
     <use x="1306.107422" xlink:href="#ArialMT-110"/>
     <use x="1361.722656" xlink:href="#ArialMT-100"/>
     <use x="1417.337891" xlink:href="#ArialMT-101"/>
     <use x="1472.953125" xlink:href="#ArialMT-114"/>
     <use x="1506.253906" xlink:href="#ArialMT-32"/>
     <use x="1534.037109" xlink:href="#ArialMT-102"/>
     <use x="1561.820312" xlink:href="#ArialMT-105"/>
     <use x="1584.037109" xlink:href="#ArialMT-108"/>
     <use x="1606.253906" xlink:href="#ArialMT-116"/>
     <use x="1634.037109" xlink:href="#ArialMT-101"/>
     <use x="1689.652344" xlink:href="#ArialMT-114"/>
     <use x="1722.953125" xlink:href="#ArialMT-101"/>
     <use x="1778.568359" xlink:href="#ArialMT-100"/>
    </g>
   </g>
   <g id="legend_1">
    <g id="patch_9">
     <path d="M 1144.1725 195.895812 
L 1280.6 195.895812 
Q 1285 195.895812 1285 191.495812 
L 1285 101.8 
Q 1285 97.4 1280.6 97.4 
L 1144.1725 97.4 
Q 1139.7725 97.4 1139.7725 101.8 
L 1139.7725 191.495812 
Q 1139.7725 195.895812 1144.1725 195.895812 
z
" style="fill:#ffffff;opacity:0.8;stroke:#cccccc;stroke-linejoin:miter;"/>
    </g>
    <g id="text_12">
     <!-- Gender -->
     <g style="fill:#262626;" transform="translate(1178.367656 120.801937)scale(0.204 -0.204)">
      <use xlink:href="#ArialMT-71"/>
      <use x="77.783203" xlink:href="#ArialMT-101"/>
      <use x="133.398438" xlink:href="#ArialMT-110"/>
      <use x="189.013672" xlink:href="#ArialMT-100"/>
      <use x="244.628906" xlink:href="#ArialMT-101"/>
      <use x="300.244141" xlink:href="#ArialMT-114"/>
     </g>
    </g>
    <g id="patch_10">
     <path d="M 1148.5725 151.603625 
L 1192.5725 151.603625 
L 1192.5725 136.203625 
L 1148.5725 136.203625 
z
" style="fill:#b4d4df;stroke:#797979;stroke-linejoin:miter;stroke-width:0.75;"/>
    </g>
    <g id="text_13">
     <!-- male -->
     <defs>
      <path d="M 6.59375 0 
L 6.59375 51.859375 
L 14.453125 51.859375 
L 14.453125 44.578125 
Q 16.890625 48.390625 20.9375 50.703125 
Q 25 53.03125 30.171875 53.03125 
Q 35.9375 53.03125 39.625 50.640625 
Q 43.3125 48.25 44.828125 43.953125 
Q 50.984375 53.03125 60.84375 53.03125 
Q 68.5625 53.03125 72.703125 48.75 
Q 76.859375 44.484375 76.859375 35.59375 
L 76.859375 0 
L 68.109375 0 
L 68.109375 32.671875 
Q 68.109375 37.9375 67.25 40.25 
Q 66.40625 42.578125 64.15625 43.984375 
Q 61.921875 45.40625 58.890625 45.40625 
Q 53.421875 45.40625 49.796875 41.765625 
Q 46.1875 38.140625 46.1875 30.125 
L 46.1875 0 
L 37.40625 0 
L 37.40625 33.6875 
Q 37.40625 39.546875 35.25 42.46875 
Q 33.109375 45.40625 28.21875 45.40625 
Q 24.515625 45.40625 21.359375 43.453125 
Q 18.21875 41.5 16.796875 37.734375 
Q 15.375 33.984375 15.375 26.90625 
L 15.375 0 
z
" id="ArialMT-109"/>
     </defs>
     <g style="fill:#262626;" transform="translate(1210.1725 151.603625)scale(0.22 -0.22)">
      <use xlink:href="#ArialMT-109"/>
      <use x="83.300781" xlink:href="#ArialMT-97"/>
      <use x="138.916016" xlink:href="#ArialMT-108"/>
      <use x="161.132812" xlink:href="#ArialMT-101"/>
     </g>
    </g>
    <g id="patch_11">
     <path d="M 1148.5725 182.723313 
L 1192.5725 182.723313 
L 1192.5725 167.323313 
L 1148.5725 167.323313 
z
" style="fill:#f6bfc7;stroke:#797979;stroke-linejoin:miter;stroke-width:0.75;"/>
    </g>
    <g id="text_14">
     <!-- female -->
     <g style="fill:#262626;" transform="translate(1210.1725 182.723313)scale(0.22 -0.22)">
      <use xlink:href="#ArialMT-102"/>
      <use x="27.783203" xlink:href="#ArialMT-101"/>
      <use x="83.398438" xlink:href="#ArialMT-109"/>
      <use x="166.699219" xlink:href="#ArialMT-97"/>
      <use x="222.314453" xlink:href="#ArialMT-108"/>
      <use x="244.53125" xlink:href="#ArialMT-101"/>
     </g>
    </g>
   </g>
  </g>
 </g>
 <defs>
  <clipPath id="p64affe6740">
   <rect height="543.6" width="1116" x="180" y="86.4"/>
  </clipPath>
 </defs>
</svg>
